<svg xmlns="http://www.w3.org/2000/svg" width="120" height="50" viewBox="0 0 227.86 98.41" id="" class="svg replaced-svg">
    <defs>
        <style>
            .logoCls-1 {
                fill: #fff;
            }

            .logoCls-2 {
                fill: #0061af;
            }

            .logoCls-3 {
                fill: #fff;
            }
        </style>
    </defs>
    <title>logo</title>
    <g id="Layer_2" data-name="Layer 2">
        <g id="Layer_1-2" data-name="Layer 1">
            <polygon class="logoCls-1" points="30.91 23.23 0 63.39 18.48 63.39 40.31 33.16 62.14 63.39 80.63 63.39 49.72 23.23 30.91 23.23"></polygon>
            <path class="logoCls-1" d="M45.57,49.85a5.26,5.26,0,1,1-5.26-5.26,5.26,5.26,0,0,1,5.26,5.26"></path>
            <path class="logoCls-1" d="M194.88,45.06a5.26,5.26,0,1,1-5.26-5.26,5.26,5.26,0,0,1,5.26,5.26"></path>
            <path class="logoCls-2" d="M160.42,40a40,40,0,1,1-40-40,40,40,0,0,1,40,40"></path>
            <path class="logoCls-1" d="M166.35,63.71V22.6h49.71s11.79.32,11.79,12.43S220.21,49,218,49H197.27V41.72h16.25a7.27,7.27,0,0,0,3.19-6.06c0-4.14-3.19-4.46-3.19-4.46H181.65V63.39Z"></path>
            <path class="logoCls-3" d="M100.39,20.69a2.87,2.87,0,1,1-2.87-2.87,2.87,2.87,0,0,1,2.87,2.87"></path>
            <path class="logoCls-3" d="M100.39,62.75a2.87,2.87,0,1,1-2.87-2.87,2.87,2.87,0,0,1,2.87,2.87"></path>
            <path class="logoCls-3" d="M107.08,20.69a2.87,2.87,0,1,1-2.87-2.87,2.87,2.87,0,0,1,2.87,2.87"></path>
            <path class="logoCls-3" d="M107.08,27.7a2.87,2.87,0,1,1-2.87-2.87,2.87,2.87,0,0,1,2.87,2.87"></path>
            <path class="logoCls-3" d="M107.08,34.71a2.87,2.87,0,1,1-2.87-2.87,2.87,2.87,0,0,1,2.87,2.87"></path>
            <path class="logoCls-3" d="M113.77,27.7a2.87,2.87,0,1,1-2.87-2.87,2.87,2.87,0,0,1,2.87,2.87"></path>
            <path class="logoCls-3" d="M113.77,34.71a2.87,2.87,0,1,1-2.87-2.87,2.87,2.87,0,0,1,2.87,2.87"></path>
            <path class="logoCls-3" d="M107.08,41.72a2.87,2.87,0,1,1-2.87-2.87,2.87,2.87,0,0,1,2.87,2.87"></path>
            <path class="logoCls-3" d="M107.08,48.73a2.87,2.87,0,1,1-2.87-2.87,2.87,2.87,0,0,1,2.87,2.87"></path>
            <path class="logoCls-3" d="M107.08,55.74a2.87,2.87,0,1,1-2.87-2.87,2.87,2.87,0,0,1,2.87,2.87"></path>
            <path class="logoCls-3" d="M107.08,62.75a2.87,2.87,0,1,1-2.87-2.87,2.87,2.87,0,0,1,2.87,2.87"></path>
            <path class="logoCls-3" d="M113.77,20.69a2.87,2.87,0,1,1-2.87-2.87,2.87,2.87,0,0,1,2.87,2.87"></path>
            <path class="logoCls-3" d="M120.49,27.7a2.87,2.87,0,1,1-2.87-2.87,2.87,2.87,0,0,1,2.87,2.87"></path>
            <path class="logoCls-3" d="M120.49,34.71a2.87,2.87,0,1,1-2.87-2.87,2.87,2.87,0,0,1,2.87,2.87"></path>
            <path class="logoCls-3" d="M120.49,41.72a2.87,2.87,0,1,1-2.87-2.87,2.87,2.87,0,0,1,2.87,2.87"></path>
            <path class="logoCls-3" d="M127.25,48.73a2.87,2.87,0,1,1-2.87-2.87,2.87,2.87,0,0,1,2.87,2.87"></path>
            <path class="logoCls-3" d="M127.25,34.71a2.87,2.87,0,1,1-2.87-2.87,2.87,2.87,0,0,1,2.87,2.87"></path>
            <path class="logoCls-3" d="M127.25,41.72a2.87,2.87,0,1,1-2.87-2.87,2.87,2.87,0,0,1,2.87,2.87"></path>
            <path class="logoCls-3" d="M134,55.74a2.87,2.87,0,1,1-2.87-2.87A2.87,2.87,0,0,1,134,55.74"></path>
            <path class="logoCls-3" d="M134,48.73a2.87,2.87,0,1,1-2.87-2.87A2.87,2.87,0,0,1,134,48.73"></path>
            <path class="logoCls-3" d="M134,41.72a2.87,2.87,0,1,1-2.87-2.87A2.87,2.87,0,0,1,134,41.72"></path>
            <path class="logoCls-3" d="M140.75,27.7a2.87,2.87,0,1,1-2.87-2.87,2.87,2.87,0,0,1,2.87,2.87"></path>
            <path class="logoCls-3" d="M140.75,34.71a2.87,2.87,0,1,1-2.87-2.87,2.87,2.87,0,0,1,2.87,2.87"></path>
            <path class="logoCls-3" d="M140.75,41.72a2.87,2.87,0,1,1-2.87-2.87,2.87,2.87,0,0,1,2.87,2.87"></path>
            <path class="logoCls-3" d="M140.75,48.73a2.87,2.87,0,1,1-2.87-2.87,2.87,2.87,0,0,1,2.87,2.87"></path>
            <path class="logoCls-3" d="M140.75,55.74a2.87,2.87,0,1,1-2.87-2.87,2.87,2.87,0,0,1,2.87,2.87"></path>
            <path class="logoCls-3" d="M140.75,62.75a2.87,2.87,0,1,1-2.87-2.87,2.87,2.87,0,0,1,2.87,2.87"></path>
            <path class="logoCls-3" d="M134,20.69a2.87,2.87,0,1,1-2.87-2.87A2.87,2.87,0,0,1,134,20.69"></path>
            <path class="logoCls-3" d="M140.75,20.69a2.87,2.87,0,1,1-2.87-2.87,2.87,2.87,0,0,1,2.87,2.87"></path>
            <path class="logoCls-3" d="M147.5,20.69a2.87,2.87,0,1,1-2.87-2.87,2.87,2.87,0,0,1,2.87,2.87"></path>
            <path class="logoCls-3" d="M113.77,62.75a2.87,2.87,0,1,1-2.87-2.87,2.87,2.87,0,0,1,2.87,2.87"></path>
            <path class="logoCls-1" d="M9.31,83.18l5.45,15H11.43l-1.1-3.34H4.88L3.74,98.17H.52L6,83.18Zm.18,9.2-1.84-5.5h0l-1.9,5.5Z"></path>
            <path class="logoCls-1" d="M22.33,96.92a2.73,2.73,0,0,1-1.2,1.14A4.28,4.28,0,0,1,17.58,98a3.76,3.76,0,0,1-1.33-1.15,5.26,5.26,0,0,1-.79-1.67,7.23,7.23,0,0,1-.27-2,6.79,6.79,0,0,1,.27-1.9,5,5,0,0,1,.79-1.61,4,4,0,0,1,1.31-1.12,3.8,3.8,0,0,1,1.83-.42,3.65,3.65,0,0,1,1.6.37,2.83,2.83,0,0,1,1.2,1.09h0V84.68h2.6V98.17H22.37V96.92Zm-.11-4.83a2.9,2.9,0,0,0-.38-1,2.15,2.15,0,0,0-.69-.69,2,2,0,0,0-1.06-.26,2,2,0,0,0-1.79,1,3.14,3.14,0,0,0-.38,1,5.56,5.56,0,0,0-.12,1.16,5.09,5.09,0,0,0,.13,1.13,3.12,3.12,0,0,0,.41,1,2.33,2.33,0,0,0,.72.72,1.9,1.9,0,0,0,1,.27,2,2,0,0,0,1.07-.26,2,2,0,0,0,.69-.71,3.23,3.23,0,0,0,.37-1,6.08,6.08,0,0,0,.11-1.17,5.94,5.94,0,0,0-.11-1.16"></path>
            <polygon class="logoCls-1" points="29.16 98.17 25.91 88.4 28.64 88.4 30.64 95.07 30.68 95.07 32.68 88.4 35.27 88.4 32.06 98.17 29.16 98.17"></polygon>
            <path class="logoCls-1" d="M36.7,89.84a3.17,3.17,0,0,1,1-1,4.37,4.37,0,0,1,1.4-.54,7.68,7.68,0,0,1,1.57-.16,10.37,10.37,0,0,1,1.45.1,4.35,4.35,0,0,1,1.34.41,2.67,2.67,0,0,1,1,.84,2.4,2.4,0,0,1,.39,1.43V96a10.51,10.51,0,0,0,.07,1.27,2.34,2.34,0,0,0,.26.91H42.55a3.79,3.79,0,0,1-.12-.46,4,4,0,0,1-.06-.48,3.38,3.38,0,0,1-1.47.93,5.74,5.74,0,0,1-1.72.26,4.51,4.51,0,0,1-1.27-.17,2.87,2.87,0,0,1-1-.53,2.45,2.45,0,0,1-.69-.91,3.13,3.13,0,0,1-.25-1.3,2.91,2.91,0,0,1,.28-1.37,2.44,2.44,0,0,1,.73-.86,3.26,3.26,0,0,1,1-.48,11.27,11.27,0,0,1,1.16-.26q.59-.09,1.16-.15a6.6,6.6,0,0,0,1-.17,1.73,1.73,0,0,0,.7-.33.74.74,0,0,0,.24-.63,1.45,1.45,0,0,0-.14-.69,1,1,0,0,0-.37-.4,1.4,1.4,0,0,0-.53-.19,4.17,4.17,0,0,0-.65,0,1.93,1.93,0,0,0-1.21.34,1.53,1.53,0,0,0-.51,1.13H36.24a3.19,3.19,0,0,1,.46-1.57m5.15,3.79a4,4,0,0,1-.53.14l-.6.09-.62.1a4.42,4.42,0,0,0-.58.15,1.68,1.68,0,0,0-.49.25,1.21,1.21,0,0,0-.34.41,1.35,1.35,0,0,0-.13.62,1.3,1.3,0,0,0,.13.6,1,1,0,0,0,.35.39,1.42,1.42,0,0,0,.51.2,3.18,3.18,0,0,0,.61.06,2.25,2.25,0,0,0,1.19-.27,1.76,1.76,0,0,0,.62-.63,2.08,2.08,0,0,0,.25-.75,5.4,5.4,0,0,0,0-.6v-1a1.16,1.16,0,0,1-.41.24"></path>
            <path class="logoCls-1" d="M49.36,88.4v1.36h.05a3,3,0,0,1,1.28-1.24,3.63,3.63,0,0,1,1.62-.39,4.31,4.31,0,0,1,1.72.29,2.56,2.56,0,0,1,1.06.81,3.19,3.19,0,0,1,.54,1.26,8.1,8.1,0,0,1,.16,1.65v6h-2.6V92.65a3.51,3.51,0,0,0-.37-1.8,1.41,1.41,0,0,0-1.3-.59,1.78,1.78,0,0,0-1.54.65,3.71,3.71,0,0,0-.48,2.14v5.12h-2.6V88.4Z"></path>
            <path class="logoCls-1" d="M62.29,90.16a1.79,1.79,0,0,0-1,.29,2.28,2.28,0,0,0-.69.76,3.32,3.32,0,0,0-.38,1,5.73,5.73,0,0,0-.11,1.11,5.48,5.48,0,0,0,.11,1.08,3.4,3.4,0,0,0,.36,1,2.09,2.09,0,0,0,.67.73,1.81,1.81,0,0,0,1,.28,1.88,1.88,0,0,0,1.44-.54,2.57,2.57,0,0,0,.63-1.45h2.51a4.47,4.47,0,0,1-1.47,3,4.65,4.65,0,0,1-3.1,1,5,5,0,0,1-2-.37,4.3,4.3,0,0,1-1.51-1,4.68,4.68,0,0,1-1-1.58,5.62,5.62,0,0,1-.35-2,6.69,6.69,0,0,1,.32-2.11,4.78,4.78,0,0,1,.94-1.68,4.32,4.32,0,0,1,1.52-1.11,5,5,0,0,1,2.06-.4,5.83,5.83,0,0,1,1.62.23,4.28,4.28,0,0,1,1.39.69,3.66,3.66,0,0,1,1,1.15,3.76,3.76,0,0,1,.44,1.63H64.21a1.76,1.76,0,0,0-1.93-1.68"></path>
            <path class="logoCls-1" d="M71.08,95.83a2.29,2.29,0,0,0,1.69.59A2.27,2.27,0,0,0,74.12,96a1.67,1.67,0,0,0,.7-.86h2.29a4.48,4.48,0,0,1-1.69,2.51,4.85,4.85,0,0,1-2.75.75,5.25,5.25,0,0,1-2-.37,4.17,4.17,0,0,1-1.52-1,4.74,4.74,0,0,1-1-1.62,6.09,6.09,0,0,1-.34-2.08,5.83,5.83,0,0,1,.35-2,4.79,4.79,0,0,1,1-1.63,4.64,4.64,0,0,1,1.53-1.09,4.79,4.79,0,0,1,2-.4,4.4,4.4,0,0,1,2.11.48,4.25,4.25,0,0,1,1.48,1.29,5.4,5.4,0,0,1,.83,1.85,7.1,7.1,0,0,1,.18,2.17H70.43a2.76,2.76,0,0,0,.64,1.89M74,90.69a1.8,1.8,0,0,0-1.42-.53,2.21,2.21,0,0,0-1,.22,2,2,0,0,0-1,1.22,3.08,3.08,0,0,0-.12.64h4.24A3.15,3.15,0,0,0,74,90.69"></path>
            <path class="logoCls-1" d="M85.55,96.92a2.73,2.73,0,0,1-1.2,1.14A4.28,4.28,0,0,1,80.8,98a3.77,3.77,0,0,1-1.33-1.15,5.26,5.26,0,0,1-.79-1.67,7.23,7.23,0,0,1-.27-2,6.79,6.79,0,0,1,.27-1.9,5,5,0,0,1,.79-1.61,4,4,0,0,1,1.31-1.12,3.8,3.8,0,0,1,1.83-.42,3.65,3.65,0,0,1,1.61.37,2.83,2.83,0,0,1,1.2,1.09h0V84.68h2.6V98.17H85.59V96.92Zm-.11-4.83a2.9,2.9,0,0,0-.38-1,2.15,2.15,0,0,0-.69-.69,2,2,0,0,0-1.06-.26,2,2,0,0,0-1.79,1,3.14,3.14,0,0,0-.38,1A5.56,5.56,0,0,0,81,93.28a5.09,5.09,0,0,0,.13,1.13,3.12,3.12,0,0,0,.41,1,2.33,2.33,0,0,0,.72.72,1.9,1.9,0,0,0,1,.27,2,2,0,0,0,1.07-.26,2,2,0,0,0,.69-.71,3.23,3.23,0,0,0,.37-1,6.08,6.08,0,0,0,.11-1.17,5.94,5.94,0,0,0-.11-1.16"></path>
            <polygon class="logoCls-1" points="98.73 83.17 104.8 93.23 104.84 93.23 104.84 83.17 107.84 83.17 107.84 98.17 104.64 98.17 98.58 88.13 98.54 88.13 98.54 98.17 95.54 98.17 95.54 83.17 98.73 83.17"></polygon>
            <path class="logoCls-1" d="M110.59,89.84a3.16,3.16,0,0,1,1-1,4.37,4.37,0,0,1,1.4-.54,7.68,7.68,0,0,1,1.57-.16,10.38,10.38,0,0,1,1.45.1,4.35,4.35,0,0,1,1.34.41,2.67,2.67,0,0,1,1,.84,2.4,2.4,0,0,1,.39,1.43V96a10.51,10.51,0,0,0,.07,1.27,2.34,2.34,0,0,0,.26.91h-2.64a3.79,3.79,0,0,1-.12-.46,4.42,4.42,0,0,1-.07-.48,3.39,3.39,0,0,1-1.47.93,5.76,5.76,0,0,1-1.73.26,4.51,4.51,0,0,1-1.27-.17,2.87,2.87,0,0,1-1-.53,2.45,2.45,0,0,1-.69-.91,3.13,3.13,0,0,1-.25-1.3,2.91,2.91,0,0,1,.28-1.37,2.44,2.44,0,0,1,.73-.86,3.26,3.26,0,0,1,1-.48,11.27,11.27,0,0,1,1.17-.26q.59-.09,1.16-.15a6.6,6.6,0,0,0,1-.17,1.74,1.74,0,0,0,.7-.33.74.74,0,0,0,.24-.63,1.45,1.45,0,0,0-.14-.69,1,1,0,0,0-.37-.4,1.4,1.4,0,0,0-.53-.19,4.16,4.16,0,0,0-.65,0,1.93,1.93,0,0,0-1.21.34,1.53,1.53,0,0,0-.51,1.13h-2.61a3.19,3.19,0,0,1,.46-1.57m5.15,3.79a4,4,0,0,1-.53.14l-.6.09L114,94a4.42,4.42,0,0,0-.58.15,1.68,1.68,0,0,0-.5.25,1.21,1.21,0,0,0-.34.41,1.34,1.34,0,0,0-.13.62,1.29,1.29,0,0,0,.13.6,1,1,0,0,0,.35.39,1.42,1.42,0,0,0,.51.2,3.18,3.18,0,0,0,.61.06,2.24,2.24,0,0,0,1.19-.27,1.75,1.75,0,0,0,.62-.63,2.06,2.06,0,0,0,.25-.75,5.4,5.4,0,0,0,0-.6v-1a1.16,1.16,0,0,1-.41.24"></path>
            <path class="logoCls-1" d="M123.25,88.4v1.36h.05a3,3,0,0,1,1.28-1.24,3.63,3.63,0,0,1,1.61-.39,4.32,4.32,0,0,1,1.72.29,2.56,2.56,0,0,1,1.06.81,3.21,3.21,0,0,1,.54,1.26,8.17,8.17,0,0,1,.16,1.65v6h-2.61V92.65a3.5,3.5,0,0,0-.37-1.8,1.4,1.4,0,0,0-1.3-.59,1.78,1.78,0,0,0-1.54.65,3.71,3.71,0,0,0-.48,2.14v5.12h-2.61V88.4Z"></path>
            <path class="logoCls-1" d="M131.71,91.17a4.61,4.61,0,0,1,1-1.62,4.46,4.46,0,0,1,1.54-1,5.29,5.29,0,0,1,2-.37,5.36,5.36,0,0,1,2,.37,4.43,4.43,0,0,1,1.55,1,4.61,4.61,0,0,1,1,1.63,6.16,6.16,0,0,1,.35,2.13,6.09,6.09,0,0,1-.35,2.12,4.6,4.6,0,0,1-1,1.62,4.3,4.3,0,0,1-1.55,1,5.46,5.46,0,0,1-2,.36,5.39,5.39,0,0,1-2-.36,4.33,4.33,0,0,1-1.54-1,4.6,4.6,0,0,1-1-1.62,6.06,6.06,0,0,1-.35-2.12,6.14,6.14,0,0,1,.35-2.12m2.37,3.27a3.1,3.1,0,0,0,.38,1,2,2,0,0,0,.71.71,2.1,2.1,0,0,0,1.1.26,2.15,2.15,0,0,0,1.11-.26,2,2,0,0,0,.72-.71,3.1,3.1,0,0,0,.38-1,5.91,5.91,0,0,0,.11-1.14,6.06,6.06,0,0,0-.11-1.15,3,3,0,0,0-.38-1,2,2,0,0,0-1.82-1,2.06,2.06,0,0,0-1.1.27,2.15,2.15,0,0,0-.71.71,3,3,0,0,0-.38,1A6.06,6.06,0,0,0,134,93.3a5.91,5.91,0,0,0,.11,1.14"></path>
            <path class="logoCls-1" d="M154.94,83.17a5.91,5.91,0,0,1,2.32.41,4.34,4.34,0,0,1,1.56,1.08,4.19,4.19,0,0,1,.88,1.53,5.9,5.9,0,0,1,0,3.56,4.17,4.17,0,0,1-.88,1.54,4.34,4.34,0,0,1-1.56,1.08,5.91,5.91,0,0,1-2.32.41h-3.37v5.38h-3.2v-15Zm-.88,7.06a6.41,6.41,0,0,0,1.06-.08,2.42,2.42,0,0,0,.9-.32,1.74,1.74,0,0,0,.62-.68,3,3,0,0,0,0-2.31,1.75,1.75,0,0,0-.62-.68,2.41,2.41,0,0,0-.9-.32,6.52,6.52,0,0,0-1.06-.08h-2.49v4.49Z"></path>
            <path class="logoCls-1" d="M164,88.4v1.81h0a3.34,3.34,0,0,1,1.21-1.5,3.42,3.42,0,0,1,.86-.43,3,3,0,0,1,1-.15,2,2,0,0,1,.57.1v2.49l-.44-.07-.49,0a2.71,2.71,0,0,0-1.21.25,2.11,2.11,0,0,0-.8.67,2.71,2.71,0,0,0-.43,1,5.53,5.53,0,0,0-.13,1.23v4.4h-2.61V88.4Z"></path>
            <path class="logoCls-1" d="M168.43,91.17a4.61,4.61,0,0,1,1-1.62,4.46,4.46,0,0,1,1.54-1,5.29,5.29,0,0,1,2-.37,5.36,5.36,0,0,1,2,.37,4.43,4.43,0,0,1,1.55,1,4.61,4.61,0,0,1,1,1.63,6.16,6.16,0,0,1,.35,2.13,6.09,6.09,0,0,1-.35,2.12,4.6,4.6,0,0,1-1,1.62,4.3,4.3,0,0,1-1.55,1,5.46,5.46,0,0,1-2,.36,5.39,5.39,0,0,1-2-.36,4.33,4.33,0,0,1-1.54-1,4.6,4.6,0,0,1-1-1.62,6.06,6.06,0,0,1-.35-2.12,6.14,6.14,0,0,1,.35-2.12m2.37,3.27a3.1,3.1,0,0,0,.38,1,2,2,0,0,0,.71.71,2.1,2.1,0,0,0,1.1.26,2.15,2.15,0,0,0,1.11-.26,2,2,0,0,0,.72-.71,3.1,3.1,0,0,0,.38-1,5.91,5.91,0,0,0,.11-1.14,6.06,6.06,0,0,0-.11-1.15,3,3,0,0,0-.38-1,2,2,0,0,0-1.82-1,2.06,2.06,0,0,0-1.1.27,2.15,2.15,0,0,0-.71.71,3,3,0,0,0-.38,1,6.06,6.06,0,0,0-.11,1.15,5.91,5.91,0,0,0,.11,1.14"></path>
            <path class="logoCls-1" d="M186.31,96.92a2.72,2.72,0,0,1-1.2,1.14,3.91,3.91,0,0,1-1.68.35,4,4,0,0,1-1.87-.42,3.78,3.78,0,0,1-1.33-1.15,5.28,5.28,0,0,1-.79-1.67,7.23,7.23,0,0,1-.27-2,6.79,6.79,0,0,1,.27-1.9,5,5,0,0,1,.79-1.61,4,4,0,0,1,1.31-1.12,3.8,3.8,0,0,1,1.83-.42,3.65,3.65,0,0,1,1.61.37,2.82,2.82,0,0,1,1.2,1.09h0V84.68h2.6V98.17h-2.48V96.92Zm-.11-4.83a2.88,2.88,0,0,0-.38-1,2.15,2.15,0,0,0-.69-.69,2,2,0,0,0-1.07-.26,2,2,0,0,0-1.79,1,3.14,3.14,0,0,0-.38,1,5.49,5.49,0,0,0-.12,1.16,5.15,5.15,0,0,0,.13,1.13,3.17,3.17,0,0,0,.41,1,2.33,2.33,0,0,0,.72.72,1.9,1.9,0,0,0,1,.27,2,2,0,0,0,1.07-.26,2,2,0,0,0,.69-.71,3.23,3.23,0,0,0,.37-1,6.16,6.16,0,0,0,.11-1.17,6,6,0,0,0-.11-1.16"></path>
            <path class="logoCls-1" d="M197.21,98.17V96.81h-.06A3,3,0,0,1,195.87,98a3.7,3.7,0,0,1-1.61.38,4.43,4.43,0,0,1-1.71-.28,2.48,2.48,0,0,1-1.06-.8,3.19,3.19,0,0,1-.54-1.26,8.17,8.17,0,0,1-.16-1.65v-6h2.61v5.52a3.5,3.5,0,0,0,.37,1.8,1.41,1.41,0,0,0,1.3.59,1.78,1.78,0,0,0,1.54-.65,3.71,3.71,0,0,0,.48-2.14V88.4h2.61v9.77Z"></path>
            <path class="logoCls-1" d="M206.2,90.16a1.79,1.79,0,0,0-1,.29,2.3,2.3,0,0,0-.69.76,3.32,3.32,0,0,0-.38,1,5.65,5.65,0,0,0-.11,1.11,5.41,5.41,0,0,0,.11,1.08,3.35,3.35,0,0,0,.36,1,2.09,2.09,0,0,0,.67.73,1.81,1.81,0,0,0,1,.28,1.88,1.88,0,0,0,1.44-.54,2.59,2.59,0,0,0,.63-1.45h2.51a4.47,4.47,0,0,1-1.47,3,4.65,4.65,0,0,1-3.1,1,5.06,5.06,0,0,1-2-.37,4.31,4.31,0,0,1-1.51-1,4.71,4.71,0,0,1-1-1.58,5.62,5.62,0,0,1-.35-2,6.66,6.66,0,0,1,.32-2.11,4.78,4.78,0,0,1,.94-1.68,4.34,4.34,0,0,1,1.52-1.11,5.05,5.05,0,0,1,2.05-.4,5.83,5.83,0,0,1,1.62.23,4.3,4.3,0,0,1,1.39.69,3.67,3.67,0,0,1,1,1.15,3.76,3.76,0,0,1,.44,1.63h-2.55a1.76,1.76,0,0,0-1.93-1.68"></path>
            <path class="logoCls-1" d="M217.41,88.4v1.8H215.5V95a1.34,1.34,0,0,0,.22.91,1.25,1.25,0,0,0,.88.23l.42,0,.39-.06v2.08a6.09,6.09,0,0,1-.73.07l-.79,0a7.35,7.35,0,0,1-1.15-.09,2.64,2.64,0,0,1-1-.33,1.72,1.72,0,0,1-.65-.7,2.55,2.55,0,0,1-.24-1.19V90.2h-1.58V88.4h1.58V85.48h2.61V88.4Z"></path>
            <path class="logoCls-1" d="M220.85,95.74a1.57,1.57,0,0,0,.45.51,1.94,1.94,0,0,0,.63.29,2.94,2.94,0,0,0,.74.09,2.7,2.7,0,0,0,.58-.07,1.91,1.91,0,0,0,.55-.21,1.28,1.28,0,0,0,.41-.38,1,1,0,0,0,.17-.6c0-.4-.26-.7-.78-.91a15.35,15.35,0,0,0-2.17-.6q-.57-.13-1.11-.31a3.68,3.68,0,0,1-1-.47,2.27,2.27,0,0,1-.68-.74,2.14,2.14,0,0,1-.26-1.09,3,3,0,0,1,.36-1.55,2.67,2.67,0,0,1,.94-1,4.11,4.11,0,0,1,1.32-.49,8,8,0,0,1,1.5-.14,7.28,7.28,0,0,1,1.49.15,3.86,3.86,0,0,1,1.29.51,3,3,0,0,1,.95,1,3.27,3.27,0,0,1,.45,1.5h-2.48a1.18,1.18,0,0,0-.57-1,2.53,2.53,0,0,0-1.21-.27L222,90a1.5,1.5,0,0,0-.47.12,1,1,0,0,0-.36.27.83.83,0,0,0,.11,1.07,2,2,0,0,0,.67.37,8.06,8.06,0,0,0,.94.25l1.08.25a11,11,0,0,1,1.11.32,3.6,3.6,0,0,1,1,.5,2.41,2.41,0,0,1,.68.77A2.32,2.32,0,0,1,227,95a3.18,3.18,0,0,1-.38,1.61,3,3,0,0,1-1,1,3.94,3.94,0,0,1-1.38.56,7.93,7.93,0,0,1-1.59.16,7.67,7.67,0,0,1-1.62-.17,4.18,4.18,0,0,1-1.4-.57,3.22,3.22,0,0,1-1-1A3.37,3.37,0,0,1,218.2,95h2.48a1.51,1.51,0,0,0,.17.75"></path>
        </g>
    </g>
</svg>